<?xml version="1.0" encoding="utf-8"?>
<!-- Generator: Adobe Illustrator 21.0.0, SVG Export Plug-In . SVG Version: 6.00 Build 0)  -->
<svg version="1.1" id="Layer_1" xmlns="http://www.w3.org/2000/svg" xmlns:xlink="http://www.w3.org/1999/xlink" x="0px" y="0px"
	 viewBox="0 0 611.8 122" style="enable-background:new 0 0 611.8 122;" xml:space="preserve">
<style type="text/css">
	.st0{fill:#00ADEE;}
	.st1{fill:#404041;}
	.st2{fill:none;stroke:#00ADEE;stroke-width:3;stroke-miterlimit:10;}
	.st3{fill:#00ADEE;stroke:#00ADEE;stroke-width:3;stroke-miterlimit:10;}
	.st4{fill:#FFFFFF;}
	.st5{font-family:'Montserrat-SemiBold';}
	.st6{font-size:55.3071px;}
</style>
<g>
	<path class="st0" d="M58.2,0c1.9,0,3.7,0,5.6,0c0.2,0,0.4,0.1,0.6,0.1c2.2,0.2,4.4,0.4,6.5,0.7c7.8,1.2,15,3.9,21.7,8.1
		c11.7,7.3,20.2,17.3,25.2,30.2c2.2,5.6,3.5,11.5,3.9,17.5c0.1,1,0.1,2,0.2,3c0,1.4,0,2.9,0,4.3c0,0.2-0.1,0.5-0.1,0.7
		c-0.2,3.4-0.7,6.8-1.4,10.1c-2.4,10.2-7.1,19.2-14.1,26.9c-6.6,7.3-14.5,12.8-23.7,16.3c-5.5,2.1-11.3,3.4-17.2,3.8
		c-3.3,0.2-6.5,0.2-9.8-0.1c-3.4-0.3-6.7-0.9-10-1.7c-9-2.4-17-6.5-24.1-12.6c-7.4-6.3-13-13.9-16.8-22.9C2,78.2,0.5,71.5,0.1,64.5
		c-0.3-5.4,0-10.7,1.1-15.9c2-9.5,6.1-18.1,12.2-25.7c5.9-7.4,13.2-13.1,21.8-17.2c6.5-3.1,13.4-4.9,20.7-5.5
		C56.6,0.2,57.4,0.1,58.2,0z M31.5,85c0.1-0.1,0.3-0.3,0.4-0.4c2.5-2.5,5-5,7.5-7.5c0.9-0.9,1.9-1.2,3.1-1.1
		c1.1,0.1,1.9,0.7,2.6,1.4c5.7,5.2,12.4,7.2,20,5.9c4.7-0.8,8.6-3,12-6.3c1.5-1.5,3.8-1.5,5.4,0c2.5,2.5,5,5,7.4,7.4
		c0.1,0.1,0.3,0.3,0.5,0.4c11.6-13.8,11.4-34.7,0-48.1c-0.1,0.1-0.2,0.2-0.3,0.3c-2.5,2.5-4.9,4.9-7.4,7.4c-1.8,1.8-3.8,1.8-5.7,0.1
		c-3.4-3.3-7.4-5.4-12.1-6.2c-3-0.5-6-0.5-8.9,0.2c-4.3,1-8,3-11.2,6.1c-1.6,1.6-3.9,1.6-5.4,0c-2.5-2.5-5-4.9-7.4-7.4
		c-0.1-0.1-0.3-0.3-0.5-0.4C19.8,50.9,20.3,71.8,31.5,85z M20.7,26.2c-18,20.1-16.9,50.9,0,69.6c1.8-1.8,3.5-3.6,5.3-5.3
		C19,81.9,15.3,72.1,15.3,61c0-11.1,3.8-20.9,10.8-29.4C24.2,29.7,22.5,28,20.7,26.2z M26.1,101.3c11.2,9.4,24.1,13.9,38.8,12.9
		c11.7-0.8,22-5.3,30.9-12.8c-1.8-1.8-3.6-3.6-5.4-5.4c-8.5,7-18.3,10.7-29.4,10.7c-11.1,0-20.9-3.7-29.4-10.8
		C29.7,97.7,28,99.5,26.1,101.3z M96,31.5c7.1,8.6,10.8,18.4,10.8,29.5c0,11.1-3.7,20.9-10.8,29.4c1.8,1.8,3.6,3.6,5.3,5.4
		c17.8-20,17.1-50.5,0-69.6C99.5,27.9,97.8,29.7,96,31.5z M31.5,26C40.1,19,49.9,15.3,61,15.3c11.1,0,20.9,3.7,29.5,10.8
		c1.8-1.8,3.6-3.6,5.3-5.4c-20.1-17.8-50.5-17-69.6,0C28,22.5,29.7,24.2,31.5,26z M37,90.5C50.5,102,71.4,102,85.1,90.4
		c-1.8-1.8-3.6-3.6-5.2-5.3c-12.6,8.5-25.1,8.5-37.5,0.1C40.6,87,38.8,88.8,37,90.5z M85,31.5c-13.8-11.5-34.7-11.4-48,0.1
		c1.8,1.8,3.5,3.6,5.2,5.3c12.7-8.5,25.1-8.5,37.5-0.1C81.4,35,83.2,33.2,85,31.5z"/>
	<path class="st1" d="M78.2,64.8c-0.7,0-1.3,0-2,0c-0.4,0-0.6,0.1-0.7,0.5c-1.2,4-3.7,7.1-7.4,9.1c-8.4,4.5-18.7,0.3-21.6-9
		c-0.2-0.5-0.4-0.7-0.9-0.7c-1.2,0-2.4,0-3.5,0c-2.2,0-3.9-1.6-3.9-3.7c0-2.2,1.6-3.9,3.8-3.9c1.3,0,2.6,0,3.8,0
		c0.4,0,0.5-0.1,0.6-0.5c1.9-5.8,5.8-9.5,11.8-10.7c7.5-1.5,14.9,3,17.2,10.5c0.2,0.5,0.4,0.7,0.9,0.7c1.5,0,3-0.1,4.4,0.1
		c1.9,0.2,3.2,2.1,3.1,4c-0.2,1.9-1.8,3.5-3.7,3.5C79.5,64.8,78.9,64.8,78.2,64.8z M53.4,61c0,4.3,3.4,7.7,7.6,7.7
		c4.2,0,7.6-3.4,7.6-7.6c0-4.2-3.4-7.7-7.6-7.7C56.8,53.4,53.4,56.8,53.4,61z"/>
</g>
<g>
	<path class="st0" d="M145.7,38.1H161c12.3,0,20.6,8.1,20.6,19.4c0,11.3-8.3,19.4-20.6,19.4h-15.3V38.1z M160.8,74.2
		c11,0,18-7,18-16.8s-7-16.8-18-16.8h-12.3v33.6H160.8z"/>
	<path class="st0" d="M189.6,38.7c0-1.2,1-2.3,2.3-2.3c1.3,0,2.3,1,2.3,2.2c0,1.3-1,2.3-2.3,2.3C190.6,40.9,189.6,39.9,189.6,38.7z
		 M190.5,47.9h2.8v28.9h-2.8V47.9z"/>
	<path class="st0" d="M230.9,47.9v25.8c0,9.7-4.7,14-14,14c-5.3,0-10.3-1.7-13.2-4.6l1.5-2.1c2.9,2.7,7,4.2,11.7,4.2
		c7.7,0,11.3-3.5,11.3-11.2v-4.9c-2.4,4.2-6.8,6.6-12,6.6c-8.2,0-14.4-5.8-14.4-14c0-8.2,6.2-14,14.4-14c5.3,0,9.8,2.4,12.1,6.7
		v-6.5H230.9z M228.2,61.7c0-6.8-5-11.5-11.8-11.5c-6.8,0-11.8,4.7-11.8,11.5c0,6.8,5,11.6,11.8,11.6
		C223.2,73.3,228.2,68.5,228.2,61.7z"/>
	<path class="st0" d="M241.7,38.7c0-1.2,1-2.3,2.3-2.3c1.3,0,2.3,1,2.3,2.2c0,1.3-1,2.3-2.3,2.3C242.7,40.9,241.7,39.9,241.7,38.7z
		 M242.6,47.9h2.8v28.9h-2.8V47.9z"/>
	<path class="st0" d="M271.4,75c-1.4,1.4-3.8,2-5.9,2c-5.1,0-7.9-3-7.9-7.9V50.3h-5.3v-2.4h5.3v-6.3h2.8v6.3h9.2v2.4h-9.2v18.6
		c0,3.7,1.8,5.8,5.4,5.8c1.7,0,3.3-0.6,4.5-1.6L271.4,75z"/>
	<path class="st0" d="M299.9,58.5v18.3h-2.7v-5.1c-1.8,3.3-5.4,5.4-10.4,5.4c-6.5,0-10.4-3.3-10.4-8.2c0-4.4,2.8-8.1,10.8-8.1h9.9
		v-2.3c0-5.4-2.9-8.2-8.6-8.2c-4,0-7.6,1.5-10,3.7l-1.4-2c2.9-2.5,7.1-4.1,11.6-4.1C295.9,47.7,299.9,51.3,299.9,58.5z M297.2,68.3
		v-5.4h-9.8c-6,0-8.1,2.5-8.1,5.8c0,3.8,2.9,6.1,8,6.1C292.1,74.7,295.5,72.4,297.2,68.3z"/>
	<path class="st0" d="M311.3,35.8h2.8v41h-2.8V35.8z"/>
	<path class="st0" d="M357.5,51.8c0,8.5-6.3,13.8-16.5,13.8h-8.7v11.2h-7.2V38.1H341C351.2,38.1,357.5,43.3,357.5,51.8z M350.3,51.8
		c0-4.9-3.3-7.7-9.6-7.7h-8.4v15.4h8.4C347,59.5,350.3,56.7,350.3,51.8z"/>
	<path class="st0" d="M380.8,46.9v6.6c-0.6-0.1-1.1-0.2-1.6-0.2c-5.3,0-8.6,3.1-8.6,9.1v14.3h-6.9V47.3h6.6v4.3
		C372.3,48.5,375.9,46.9,380.8,46.9z"/>
	<path class="st0" d="M384,62c0-8.8,6.6-15.1,15.7-15.1c9.2,0,15.8,6.2,15.8,15.1s-6.6,15.2-15.8,15.2C390.6,77.2,384,70.9,384,62z
		 M408.5,62c0-5.6-3.8-9.2-8.8-9.2c-5,0-8.7,3.6-8.7,9.2c0,5.6,3.8,9.2,8.7,9.2C404.7,71.3,408.5,67.7,408.5,62z"/>
	<path class="st0" d="M412.4,86.2l2-5.1c1.1,0.8,2.5,1.2,4,1.2c2.5,0,4-1.5,4-4.7V47.3h6.9v30.1c0,6.5-3.7,10.6-10.3,10.6
		C416.5,87.9,414,87.4,412.4,86.2z M421.4,38.2c0-2.3,1.9-4.1,4.4-4.1s4.4,1.7,4.4,4c0,2.4-1.8,4.3-4.4,4.3
		C423.3,42.4,421.4,40.6,421.4,38.2z"/>
	<path class="st0" d="M466.1,64.2h-23.2c0.8,4.3,4.4,7.1,9.6,7.1c3.3,0,5.9-1.1,8-3.2l3.7,4.3c-2.7,3.2-6.8,4.8-11.9,4.8
		c-9.9,0-16.3-6.4-16.3-15.2c0-8.8,6.5-15.1,15.3-15.1c8.6,0,14.9,6,14.9,15.3C466.2,62.7,466.1,63.6,466.1,64.2z M442.8,59.6h16.8
		c-0.6-4.3-3.8-7.2-8.4-7.2C446.8,52.5,443.5,55.3,442.8,59.6z"/>
	<path class="st1" d="M484.9,64.1l-5.1,4.9v7.8h-6.9v-41h6.9v24.8l14.3-13.3h8.3L490,59.6l13.5,17.1h-8.4L484.9,64.1z"/>
	<path class="st0" d="M528.4,73.7c-1.7,1.3-6.8,3.5-9.3,3.5c-6.5,0-10.2-3.4-10.2-10V53h-4.9v-5.5h4.9v-6.7h6.9v6.7h7.9V53h-7.9v14
		c0,2.9,1.4,4.4,4.1,4.4c1.4,0,6.3-1.6,7.3-2.4L528.4,73.7z"/>
</g>
<rect x="134.4" y="26.2" class="st2" width="397" height="69.6"/>
<rect x="531.4" y="26.2" class="st3" width="78.8" height="69.6"/>
<text transform="matrix(1 0 0 1 522.9013 77.1772)" class="st4 st5 st6">.co</text>
</svg>
